<?xml version="1.0" encoding="UTF-8" standalone="no"?>
<!-- Created with Inkscape (http://www.inkscape.org/) -->

<svg
   xmlns:dc="http://purl.org/dc/elements/1.1/"
   xmlns:cc="http://creativecommons.org/ns#"
   xmlns:rdf="http://www.w3.org/1999/02/22-rdf-syntax-ns#"
   xmlns:svg="http://www.w3.org/2000/svg"
   xmlns="http://www.w3.org/2000/svg"
   xmlns:sodipodi="http://sodipodi.sourceforge.net/DTD/sodipodi-0.dtd"
   xmlns:inkscape="http://www.inkscape.org/namespaces/inkscape"
   width="500"
   height="500"
   viewBox="0 0 132.29166 132.29167"
   version="1.1"
   id="svg8"
   inkscape:version="0.92.5 (2060ec1f9f, 2020-04-08)"
   sodipodi:docname="MedicareLogo.svg">
  <defs
     id="defs2">
    <filter
       inkscape:collect="always"
       style="color-interpolation-filters:sRGB"
       id="filter893"
       x="-0.052876661"
       width="1.1057533"
       y="-0.40723478"
       height="1.8144696">
      <feGaussianBlur
         inkscape:collect="always"
         stdDeviation="1.2694716"
         id="feGaussianBlur895" />
    </filter>
    <clipPath
       clipPathUnits="userSpaceOnUse"
       id="clipPath1168">
      <path
         style="fill:#ff0000;stroke:none;stroke-width:0.21250896"
         d="m 123.88552,196.83762 c -3.56896,0.0199 -6.87141,0.99829 -9.63559,2.73162 -10.15609,6.38711 -9.53341,22.45204 1.39061,43.06197 0.14029,0.26426 0.28295,0.52673 0.42737,0.78807 8.95816,16.21044 25.71446,26.74604 32.06936,26.64643 0.0999,-0.001 0.19669,-0.006 0.29093,-0.0124 0.0115,8e-4 0.0241,8e-4 0.0357,0.002 0.0836,0.005 0.1687,0.009 0.25632,0.0109 6.3553,0.099 23.11145,-10.43645 32.06936,-26.64644 0.1445,-0.26133 0.28656,-0.52379 0.42685,-0.78806 10.92401,-20.60993 11.5467,-36.67486 1.39061,-43.06197 -8.83673,-5.54122 -23.17088,-3.36866 -34.14572,13.18524 -0.0108,0.0162 -0.0218,0.0313 -0.0326,0.0475 -0.0102,-0.0154 -0.0208,-0.0296 -0.031,-0.045 -7.54219,-11.37774 -16.67104,-15.96304 -24.5122,-15.91944 z"
         id="path1170"
         inkscape:connector-curvature="0" />
    </clipPath>
    <filter
       inkscape:collect="always"
       style="color-interpolation-filters:sRGB"
       id="filter1372"
       x="-0.036178116"
       width="1.0723562"
       y="-0.040912657"
       height="1.0818253">
      <feGaussianBlur
         inkscape:collect="always"
         stdDeviation="1.2483352"
         id="feGaussianBlur1374" />
    </filter>
    <filter
       inkscape:collect="always"
       style="color-interpolation-filters:sRGB"
       id="filter1678"
       x="-0.4212"
       width="1.8424"
       y="-0.4212"
       height="1.8424">
      <feGaussianBlur
         inkscape:collect="always"
         stdDeviation="2.8612541"
         id="feGaussianBlur1680" />
    </filter>
  </defs>
  <sodipodi:namedview
     id="base"
     pagecolor="#ffffff"
     bordercolor="#666666"
     borderopacity="1.0"
     inkscape:pageopacity="0.0"
     inkscape:pageshadow="2"
     inkscape:zoom="0.49497475"
     inkscape:cx="264.91431"
     inkscape:cy="155.25161"
     inkscape:document-units="mm"
     inkscape:current-layer="layer1"
     showgrid="false"
     units="px"
     inkscape:window-width="1366"
     inkscape:window-height="670"
     inkscape:window-x="1600"
     inkscape:window-y="160"
     inkscape:window-maximized="1" />
  <metadata
     id="metadata5">
    <rdf:RDF>
      <cc:Work
         rdf:about="">
        <dc:format>image/svg+xml</dc:format>
        <dc:type
           rdf:resource="http://purl.org/dc/dcmitype/StillImage" />
        <dc:title></dc:title>
      </cc:Work>
    </rdf:RDF>
  </metadata>
  <g
     inkscape:label="Shape"
     inkscape:groupmode="layer"
     id="layer1"
     transform="translate(0,-164.70832)">
    <path
       inkscape:connector-curvature="0"
       id="path42"
       d="m 83.372764,262.85294 c -2.233015,0.002 -4.622928,0.10198 -6.931358,0.27906 -8.487833,0.65252 -13.512573,2.29374 -13.642542,4.39929 -0.0016,0.027 -9.35e-4,0.0538 0.0011,0.0805 0.126113,1.65609 7.029092,2.73243 11.027028,2.72225 0.06265,-1e-4 0.124713,-6.1e-4 0.184795,-0.001 0.0069,8e-5 0.01477,8e-5 0.02158,2.1e-4 0.05047,5.1e-4 0.102205,9.2e-4 0.156601,10e-4 3.931298,0.0101 17.934166,-1.0662 28.984452,-2.72225 0.1782,-0.0267 0.35522,-0.0535 0.53178,-0.0805 13.75938,-2.10555 19.56101,-3.74677 15.37755,-4.39929 -3.64544,-0.5661 -13.31956,-0.34414 -25.743895,1.34703 -0.01335,0.002 -0.02352,0.003 -0.03681,0.005 2.31e-4,-0.002 -0.0031,-0.003 -0.0031,-0.005 -0.871087,-1.16241 -5.020842,-1.63086 -9.927074,-1.6264 z"
       style="fill:#800000;stroke:none;stroke-width:0.05364802;filter:url(#filter893)"
       transform="matrix(1.1060102,0,0,0.55670082,-5.0536068,122.51168)" />
    <path
       style="fill:#ff0000;stroke:none;stroke-width:0.8031835"
       d="m 157.95312,121.43359 c -13.48898,0.075 -25.97065,3.77306 -36.41796,10.32422 -38.385226,24.14026 -36.031779,84.85811 5.25586,162.75391 0.53022,0.99879 1.0694,1.99079 1.61523,2.97851 33.85761,61.26781 97.18852,101.08743 121.20703,100.71094 0.37748,-0.005 0.7434,-0.0213 1.09961,-0.0469 0.0436,0.003 0.0909,0.003 0.13477,0.006 0.31602,0.0205 0.63759,0.0358 0.96875,0.041 24.02002,0.37425 87.35036,-39.44483 121.20703,-100.71094 0.54615,-0.98771 1.08305,-1.9797 1.61328,-2.97851 41.28763,-77.8958 43.64108,-138.61365 5.25586,-162.75391 -33.39867,-20.94318 -87.57499,-12.73193 -129.05469,49.83399 -0.0407,0.0614 -0.0824,0.11821 -0.12305,0.17968 -0.0385,-0.0583 -0.0786,-0.11176 -0.11718,-0.16992 -28.50592,-43.0025 -63.00867,-60.33275 -92.64454,-60.16797 z"
       id="path30"
       inkscape:connector-curvature="0"
       transform="matrix(0.26458333,0,0,0.26458333,0,164.70832)" />
    <path
       style="fill:#ffffff;stroke:none;stroke-width:0.75447375"
       d="m 231.32422,220.1875 v 50.50781 h -50.50781 v 37.375 h 50.50781 v 50.50781 h 37.37695 v -50.50781 h 50.50781 v -37.375 H 268.70117 V 220.1875 Z"
       transform="matrix(0.26458333,0,0,0.26458333,0,164.70832)"
       id="rect901"
       inkscape:connector-curvature="0" />
    <path
       inkscape:connector-curvature="0"
       id="path908"
       d="m 124.41469,196.83762 c -3.56896,0.0199 -6.87141,0.99829 -9.63559,2.73162 -10.15609,6.38711 -9.53341,22.45204 1.39061,43.06197 0.14029,0.26426 0.28295,0.52673 0.42737,0.78807 8.95816,16.21044 25.71446,26.74604 32.06936,26.64643 0.0999,-0.001 0.19669,-0.006 0.29093,-0.0124 0.0115,8e-4 0.0241,8e-4 0.0357,0.002 0.0836,0.005 0.1687,0.009 0.25632,0.0109 6.3553,0.099 23.11145,-10.43645 32.06936,-26.64644 0.1445,-0.26133 0.28656,-0.52379 0.42685,-0.78806 10.92401,-20.60993 11.5467,-36.67486 1.39061,-43.06197 -8.83673,-5.54122 -23.17088,-3.36866 -34.14572,13.18524 -0.0108,0.0162 -0.0218,0.0313 -0.0326,0.0475 -0.0102,-0.0154 -0.0208,-0.0296 -0.031,-0.045 -7.54219,-11.37774 -16.67104,-15.96304 -24.5122,-15.91944 z"
       style="fill:none;stroke:#000000;stroke-width:1.01300001;stroke-miterlimit:4;stroke-dasharray:none;filter:url(#filter1372)"
       clip-path="url(#clipPath1168)"
       transform="matrix(-1,0,0,1,214.80522,0)" />
    <circle
       style="fill:#ffaaaa;stroke:none;stroke-width:0.80250651;stroke-miterlimit:4;stroke-dasharray:none;filter:url(#filter1678)"
       id="path1376"
       cx="36.482292"
       cy="209.20193"
       r="8.151721" />
  </g>
  <g
     inkscape:groupmode="layer"
     id="layer2"
     inkscape:label="Text" />
</svg>
