<?xml version="1.0" encoding="UTF-8" standalone="no"?>
<svg
   xmlns:dc="http://purl.org/dc/elements/1.1/"
   xmlns:cc="http://creativecommons.org/ns#"
   xmlns:rdf="http://www.w3.org/1999/02/22-rdf-syntax-ns#"
   xmlns:svg="http://www.w3.org/2000/svg"
   xmlns="http://www.w3.org/2000/svg"
   xmlns:xlink="http://www.w3.org/1999/xlink"
   xmlns:sodipodi="http://sodipodi.sourceforge.net/DTD/sodipodi-0.dtd"
   xmlns:inkscape="http://www.inkscape.org/namespaces/inkscape"
   sodipodi:docname="banner.svg"
   inkscape:version="0.92.5 (2060ec1f9f, 2020-04-08)"
   id="svg8"
   version="1.1"
   viewBox="0 0 338.66668 190.5"
   height="720"
   width="1280">
  <defs
     id="defs2">
    <linearGradient
       inkscape:collect="always"
       id="linearGradient17">
      <stop
         style="stop-color:#ffffff;stop-opacity:1"
         offset="0"
         id="stop13" />
      <stop
         style="stop-color:#5fbcd3;stop-opacity:1"
         offset="1"
         id="stop15" />
    </linearGradient>
    <linearGradient
       inkscape:collect="always"
       xlink:href="#linearGradient17"
       id="linearGradient19"
       x1="138.98015"
       y1="97.922699"
       x2="138.98015"
       y2="-85.424202"
       gradientUnits="userSpaceOnUse"
       gradientTransform="matrix(1,0,0,1.852588,0,-91.23533)" />
  </defs>
  <sodipodi:namedview
     inkscape:window-maximized="1"
     inkscape:window-y="23"
     inkscape:window-x="0"
     inkscape:window-height="708"
     inkscape:window-width="1366"
     units="px"
     showgrid="false"
     inkscape:document-rotation="0"
     inkscape:current-layer="layer1"
     inkscape:document-units="mm"
     inkscape:cy="454.59585"
     inkscape:cx="438.72392"
     inkscape:zoom="0.49497475"
     inkscape:pageshadow="2"
     inkscape:pageopacity="0.0"
     borderopacity="1.0"
     bordercolor="#666666"
     pagecolor="#ffffff"
     id="base"
     borderlayer="true" />
  <metadata
     id="metadata5">
    <rdf:RDF>
      <cc:Work
         rdf:about="">
        <dc:format>image/svg+xml</dc:format>
        <dc:type
           rdf:resource="http://purl.org/dc/dcmitype/StillImage" />
        <dc:title></dc:title>
      </cc:Work>
    </rdf:RDF>
  </metadata>
  <g
     id="layer1"
     inkscape:groupmode="layer"
     inkscape:label="Layer 1"
     transform="translate(0,95.25)">
    <rect
       id="rect11"
       width="356.53754"
       height="206.96867"
       x="-7.4835467"
       y="-99.958801"
       style="fill:url(#linearGradient19);fill-opacity:1;stroke-width:0.36012384" />
    <path
       style="fill:#f2f2f2;stroke-width:0.26458332"
       d="m 157.42191,-80.6134 a 10.69078,9.8889721 0 0 0 -9.99473,6.41201 9.2207984,7.216277 0 0 0 -6.17534,-1.86862 9.2207984,7.216277 0 0 0 -9.22063,7.216614 9.2207984,7.216277 0 0 0 1.00046,3.268535 40.904318,4.535715 0 0 0 -6.27766,2.404504 40.904318,4.535715 0 0 0 40.90449,4.535641 40.904318,4.535715 0 0 0 40.90448,-4.535641 40.904318,4.535715 0 0 0 -20.41633,-3.920691 6.1471992,4.2763122 0 0 0 0.0108,-0.148828 6.1471992,4.2763122 0 0 0 -6.14691,-4.276225 6.1471992,4.2763122 0 0 0 -2.55591,0.392743 8.0180854,6.4144683 0 0 0 -7.86774,-5.203817 8.0180854,6.4144683 0 0 0 -4.61315,1.177705 10.69078,9.8889721 0 0 0 -9.55188,-5.45393 z"
       id="path51"
       inkscape:connector-curvature="0" />
    <path
       style="fill:#808080;stroke-width:0.24338794"
       d="M -15.491561,21.346243 V 97.388369 H 17.988566 V 21.346243 Z m 187.706891,0 V 44.97045 h -21.93148 v 52.417919 h 21.93148 25.9333 V 21.346243 Z m 156.44471,0 v 76.042126 h 30.01574 V 21.346243 Z M 22.562447,40.540792 V 97.388369 H 61.239672 V 40.540792 Z m 72.726827,0 V 97.388369 H 117.22127 V 40.540792 Z m 130.282486,2.953731 v 53.893846 h 21.93148 V 43.494523 Z m 76.96996,0.737964 v 53.155882 h 21.932 V 44.232487 Z M 65.926726,62.689078 V 97.388369 H 87.858202 V 62.689078 Z m 54.994054,0 v 34.699291 h 21.932 V 62.689078 Z m 80.17805,0 v 34.699291 h 21.932 V 62.689078 Z m 50.30391,0 v 34.699291 h 21.93147 V 62.689078 Z m 24.47293,6.645425 v 28.053866 h 21.93097 V 69.334503 Z"
       id="rect48"
       inkscape:connector-curvature="0" />
    <path
       style="fill:#333333;stroke-width:1.01705813"
       d="M -8.0429688,348.56055 V 728.08008 H 189.12109 V 462.78516 H 96.974609 V 348.56055 Z"
       transform="matrix(0.26458333,0,0,0.26458333,0,-95.25)"
       id="rect7"
       inkscape:connector-curvature="0"
       sodipodi:nodetypes="ccccccc" />
    <rect
       style="fill:#333333;stroke-width:0.28420305"
       y="-3.0265112"
       x="313.24991"
       height="100.41448"
       width="30.99324"
       id="rect9" />
    <rect
       id="rect23"
       width="35.804092"
       height="75.067139"
       x="273.2124"
       y="22.320833"
       style="fill:#333333;stroke-width:0.26411211" />
    <rect
       style="fill:#333333;stroke-width:0.19888236"
       y="22.320833"
       x="221.38916"
       height="75.067139"
       width="20.30246"
       id="rect25" />
    <rect
       id="rect27"
       width="20.30246"
       height="45.820194"
       x="123.44019"
       y="51.567768"
       style="fill:#333333;stroke-width:0.15538169" />
    <rect
       style="fill:#333333;stroke-width:0.15538169"
       y="51.567768"
       x="248.57069"
       height="45.820194"
       width="20.30246"
       id="rect29" />
    <path
       style="fill:#333333;stroke-width:0.94536126"
       d="m 553.60156,348.56055 v 379.51953 h 173.4668 V 466.4707 H 644.33594 V 348.56055 Z"
       transform="matrix(0.26458333,0,0,0.26458333,0,-95.25)"
       id="rect31"
       inkscape:connector-curvature="0"
       sodipodi:nodetypes="ccccccc" />
    <rect
       style="fill:#333333;stroke-width:0.1936477"
       y="26.220427"
       x="100.78541"
       height="71.167542"
       width="20.30246"
       id="rect33" />
    <rect
       id="rect37"
       width="20.30246"
       height="45.820194"
       x="197.66183"
       y="51.567768"
       style="fill:#333333;stroke-width:0.15538169" />
    <rect
       style="fill:#333333;stroke-width:0.15538169"
       y="51.567768"
       x="76.87355"
       height="45.820194"
       width="20.30246"
       id="rect39" />
    <rect
       id="rect41"
       width="20.30246"
       height="37.046112"
       x="54.21875"
       y="60.34185"
       style="fill:#333333;stroke-width:0.13971488" />
    <path
       style="fill:#f9f9f9;stroke-width:0.23427351"
       d="m 269.05365,-90.555831 a 19.642115,16.565638 0 0 1 19.64191,16.565701 19.642115,16.565638 0 0 1 -1.77489,6.831909 28.043262,21.298678 0 0 1 14.71896,8.821862 21.771983,19.168812 0 0 1 10.01154,-2.164743 21.771983,19.168812 0 0 1 21.77188,19.168791 21.771983,19.168812 0 0 1 -21.77188,19.168789 21.771983,19.168812 0 0 1 -0.80623,-0.02517 22.245287,13.844141 0 0 1 -20.01941,7.834436 22.245287,13.844141 0 0 1 -9.82484,-1.432179 c -3.5054,2.521736 -8.25291,4.073718 -13.48538,4.073704 -12.51691,0.04538 -36.79461,5.9705498 -51.86961,-4.417336 -0.72721,0.102175 -3.64093,-0.26336 -4.38073,-0.260813 -5.123,-0.752889 -10.13035,-3.722266 -10.1305,-8.830098 0.008,-4.926635 5.1535,-8.983669 11.70087,-9.225892 2.62207,-2.965484 6.62031,-5.090299 11.21446,-5.95979 1.41875,-2.678985 3.40459,-4.98533 5.78179,-6.819098 a 18.57718,19.168812 0 0 1 -2.19219,-9.015869 18.57718,19.168812 0 0 1 18.57716,-19.168791 18.57718,19.168812 0 0 1 3.24185,0.29879 19.642115,16.565638 0 0 1 19.59524,-15.444207 z"
       id="path38"
       inkscape:connector-curvature="0" />
    <path
       style="fill:#4d4d4d;stroke-width:0.30528221"
       d="m 199.09843,-52.357875 c -1.10907,0.02342 -2.16918,0.183877 -2.80325,0.408584 l -12.59483,4.463474 -6.31936,-0.913556 -1.57822,0.526554 3.15428,2.068087 -10.10665,3.581569 -9.4384,-5.325239 -2.5558,1.55952 6.80275,9.040605 c 0.52452,0.615255 2.39345,2.524089 4.27933,1.919183 l 17.82009,-6.315759 6.09205,3.994467 1.44658,-0.789112 -2.81044,-4.880687 7.97167,-2.82555 c 1.69082,-0.599212 5.44682,-3.462498 4.8476,-5.153318 -0.3745,-1.056758 -2.35893,-1.397862 -4.2074,-1.358822 z"
       id="rect43"
       inkscape:connector-curvature="0" />
    <path
       style="fill:#f9f9f9;stroke-width:0.33892903"
       d="m 67.887464,-89.230701 c -11.970248,0.0094 -22.945925,6.237416 -28.492546,16.167972 -1.834675,-0.278271 -3.70156,-0.418635 -5.573132,-0.419025 -15.599598,-4.4e-5 -28.2456068,9.515955 -28.2456311,21.254555 2.05e-5,11.738603 12.6460331,21.254602 28.2456311,21.254557 18.108514,0.06566 53.231638,8.637736 75.041004,-6.390666 1.05208,0.147818 5.26694,-0.381193 6.33723,-0.377509 7.41157,-1.089222 14.65627,-5.384905 14.6565,-12.774527 -0.0115,-7.127477 -7.4557,-12.996884 -16.9279,-13.347312 -3.79343,-4.290236 -9.57778,-7.364257 -16.224245,-8.622172 -5.429342,-10.252109 -16.593794,-16.739915 -28.816911,-16.745873 z"
       id="path29"
       inkscape:connector-curvature="0"
       sodipodi:nodetypes="ccccccccccc" />
  </g>
</svg>
