<?xml version="1.0" encoding="UTF-8" standalone="no"?>
<!-- Created with Inkscape (http://www.inkscape.org/) -->

<svg
   xmlns:dc="http://purl.org/dc/elements/1.1/"
   xmlns:cc="http://creativecommons.org/ns#"
   xmlns:rdf="http://www.w3.org/1999/02/22-rdf-syntax-ns#"
   xmlns:svg="http://www.w3.org/2000/svg"
   xmlns="http://www.w3.org/2000/svg"
   xmlns:sodipodi="http://sodipodi.sourceforge.net/DTD/sodipodi-0.dtd"
   xmlns:inkscape="http://www.inkscape.org/namespaces/inkscape"
   width="398.2417mm"
   height="337.58701mm"
   viewBox="0 0 398.2417 337.58701"
   version="1.1"
   id="svg4817"
   inkscape:version="0.92.5 (2060ec1f9f, 2020-04-08)"
   sodipodi:docname="grow.svg">
  <defs
     id="defs4811" />
  <sodipodi:namedview
     id="base"
     pagecolor="#ffffff"
     bordercolor="#666666"
     borderopacity="1.0"
     inkscape:pageopacity="0.0"
     inkscape:pageshadow="2"
     inkscape:zoom="0.175"
     inkscape:cx="819.06856"
     inkscape:cy="1418.2227"
     inkscape:document-units="mm"
     inkscape:current-layer="layer1"
     showgrid="false"
     fit-margin-top="0"
     fit-margin-left="0"
     fit-margin-right="0"
     fit-margin-bottom="0"
     inkscape:window-width="1366"
     inkscape:window-height="708"
     inkscape:window-x="0"
     inkscape:window-y="23"
     inkscape:window-maximized="1"
     showguides="false"
     inkscape:guide-bbox="true">
    <sodipodi:guide
       position="19.654762,231.32143"
       orientation="1,0"
       id="guide8"
       inkscape:locked="false" />
    <sodipodi:guide
       position="380.99999,205.61905"
       orientation="1,0"
       id="guide10"
       inkscape:locked="false" />
    <sodipodi:guide
       position="406.70237,20.410714"
       orientation="0,1"
       id="guide12"
       inkscape:locked="false" />
    <sodipodi:guide
       position="-227.54166,319.76786"
       orientation="0,1"
       id="guide14"
       inkscape:locked="false" />
    <sodipodi:guide
       position="109.61309,85.422619"
       orientation="1,0"
       id="guide97"
       inkscape:locked="false" />
    <sodipodi:guide
       position="154.97024,20.410714"
       orientation="1,0"
       id="guide99"
       inkscape:locked="false" />
    <sodipodi:guide
       position="245.68452,20.410714"
       orientation="1,0"
       id="guide101"
       inkscape:locked="false" />
    <sodipodi:guide
       position="290.28571,20.410714"
       orientation="1,0"
       id="guide103"
       inkscape:locked="false" />
    <inkscape:grid
       type="xygrid"
       id="grid914" />
  </sodipodi:namedview>
  <metadata
     id="metadata4814">
    <rdf:RDF>
      <cc:Work
         rdf:about="">
        <dc:format>image/svg+xml</dc:format>
        <dc:type
           rdf:resource="http://purl.org/dc/dcmitype/StillImage" />
        <dc:title />
      </cc:Work>
    </rdf:RDF>
  </metadata>
  <g
     inkscape:label="Layer 1"
     inkscape:groupmode="layer"
     id="layer1"
     transform="translate(159.43335,38.10302)">
    <path
       style="fill:#000000;stroke:none;stroke-width:6.80000019;stroke-miterlimit:4;stroke-dasharray:none"
       d="m -139.77859,199.57679 h 89.958333 v 79.49647 h -11.244791 -11.244792 -11.244792 -11.244792 -11.244796 -11.24479 -11.24479 -11.24479 z"
       id="rect94"
       inkscape:connector-curvature="0"
       sodipodi:nodetypes="cccccccccccc" />
    <path
       sodipodi:nodetypes="cccccccccccc"
       inkscape:connector-curvature="0"
       id="path105"
       d="M -4.2991862,128.45921 H 85.648957 v 150.6069 H 74.405436 63.161915 51.918394 40.674874 29.431352 18.187838 6.9443263 -4.2991862 Z"
       style="fill:#000000;stroke:none;stroke-width:6.80000019;stroke-miterlimit:4;stroke-dasharray:none" />
    <path
       style="fill:#000000;stroke:none;stroke-width:6.80000019;stroke-miterlimit:4;stroke-dasharray:none"
       d="m 130.6231,65.669267 h 89.9482 V 279.06611 H 209.32777 198.08424 186.84071 175.59719 164.35366 153.11014 141.86662 130.6231 Z"
       id="path107"
       inkscape:connector-curvature="0"
       sodipodi:nodetypes="cccccccccccc" />
    <path
       style="fill:#1a1a1a;stroke:none;stroke-width:25.70078659;stroke-miterlimit:4;stroke-dasharray:none"
       d="m 1348.4727,50.089844 -323.8404,2.346261 59.6568,75.575615 C 737.42188,452.03778 384.23067,632.44477 117.17773,720.33594 431.23564,673.64719 809.3439,531.03422 1186.7539,272.45117 l 67.6727,79.66128 z"
       transform="matrix(0.26458333,0,0,0.26458333,-159.43335,-38.10302)"
       id="path916"
       inkscape:connector-curvature="0"
       sodipodi:nodetypes="ccccccc" />
    <path
       style="fill:#000000;stroke:none;stroke-width:2.85714293"
       d="m 183.09392,705.36741 c 0.65477,-0.57666 15.97619,-5.21648 34.04762,-10.31074 294.87721,-83.12483 578.3453,-222.94332 851.42856,-419.96072 85.6445,-61.78864 154.5704,-116.3561 264.7555,-209.602416 5.2416,-4.435835 13.8159,-13.071064 13.8159,-11.332255 0,1.738809 -19.181,61.700111 -37.8968,121.754281 -18.7157,60.05417 -38.7062,124.26609 -44.4233,142.69314 l -10.3948,33.50375 -32.8994,-38.50375 c -18.0947,-21.17705 -33.6033,-38.50374 -34.4637,-38.50374 -0.8603,0 -21.6722,13.27868 -46.2486,29.50817 C 906.43562,459.38982 652.34818,578.3607 414.85305,650.42624 325.0773,677.66781 173.8351,713.52153 183.09392,705.36741 Z"
       id="path96"
       inkscape:connector-curvature="0"
       transform="matrix(0.26458333,0,0,0.26458333,-159.43335,-38.10302)"
       sodipodi:nodetypes="csscsccccsssc" />
    <path
       style="fill:#1a1a1a;stroke:none;stroke-width:1.01015258"
       d="M 75.094084,1048.0921 V 898.5895 H 244.22394 413.3538 l -2.52239,9.20505 c -16.18772,59.07459 -41.05482,109.61245 -74.74928,151.91425 -10.87184,13.6491 -37.93024,40.8506 -50.87631,51.1453 -45.74832,36.3792 -98.76883,61.6385 -161.69067,77.0306 -15.53242,3.7995 -44.491312,9.71 -47.575332,9.71 -0.465154,0 -0.845734,-67.2762 -0.845734,-149.5026 z"
       id="path106"
       inkscape:connector-curvature="0"
       transform="matrix(0.26458333,0,0,0.26458333,-159.43335,-38.10302)" />
    <path
       style="fill:#1a1a1a;stroke:none;stroke-width:1.01015258"
       d="M 587.24143,913.84987 V 629.88892 h 169.2198 169.2198 l -0.50409,2.27285 c -0.27726,1.25006 -1.23114,7.95495 -2.11974,14.89975 -2.46055,19.23005 -9.25618,61.92486 -13.18426,82.83251 -24.27941,129.22996 -61.00797,230.79307 -111.16406,307.39487 -19.22848,29.367 -33.80084,47.4207 -56.85339,70.4356 -23.48645,23.4481 -44.75084,39.953 -72.16108,56.0095 -20.07194,11.7578 -50.91864,25.003 -71.79822,30.8292 -4.41818,1.2329 -8.62294,2.4679 -9.34391,2.7446 -1.07245,0.4115 -1.31085,-51.1402 -1.31085,-283.45793 z"
       id="path108"
       inkscape:connector-curvature="0"
       transform="matrix(0.26458333,0,0,0.26458333,-159.43335,-38.10302)" />
    <path
       style="fill:#1a1a1a;stroke:none;stroke-width:1.01015258"
       d="M 1096.429,795.41106 V 392.89052 h 169.2005 c 93.0603,0 169.2006,0.15457 169.2006,0.34349 0,0.18891 -0.8634,3.71931 -1.9187,7.84533 -4.5233,17.68595 -8.0091,44.03624 -15.7543,119.0904 -14.3544,139.09985 -22.6632,199.40636 -37.8556,274.76149 -27.6762,137.27603 -68.6629,239.08297 -123.6305,307.08637 -9.4056,11.6362 -32.3328,34.6442 -43.5796,43.7332 -32.8954,26.5842 -71.8646,44.4785 -112.3794,51.6034 l -3.283,0.5774 z"
       id="path110"
       inkscape:connector-curvature="0"
       transform="matrix(0.26458333,0,0,0.26458333,-159.43335,-38.10302)" />
  </g>
</svg>
